<?xml version="1.0" standalone="no"?>
<!DOCTYPE svg PUBLIC "-//W3C//DTD SVG 20010904//EN"
 "http://www.w3.org/TR/2001/REC-SVG-20010904/DTD/svg10.dtd">
<svg version="1.0" xmlns="http://www.w3.org/2000/svg"
 width="225.000000pt" height="225.000000pt" viewBox="0 0 225.000000 225.000000"
 preserveAspectRatio="xMidYMid meet">
<metadata>
Created by potrace 1.10, written by Peter Selinger 2001-2011
</metadata>
<g transform="translate(0.000000,225.000000) scale(0.100000,-0.100000)"
fill="#000000" stroke="none">
<path d="M1396 1954 c-125 -30 -253 -128 -311 -237 -16 -29 -29 -53 -31 -55
-1 -2 -21 17 -45 43 -78 84 -173 126 -287 126 -130 0 -234 -69 -294 -197 -93
-198 -8 -479 204 -679 68 -65 270 -206 292 -205 6 1 2 8 -9 16 -11 8 -69 52
-130 97 -63 48 -134 111 -168 152 -68 81 -137 218 -162 320 -55 226 94 444
287 422 67 -8 165 -63 204 -115 31 -39 56 -97 68 -154 3 -15 15 -29 26 -33 33
-10 57 11 69 62 33 133 123 248 234 299 54 25 74 29 152 29 81 0 95 -3 145
-30 33 -18 66 -47 85 -73 26 -38 30 -54 34 -123 2 -64 -1 -93 -19 -142 -50
-137 -104 -211 -310 -422 -215 -220 -281 -308 -348 -461 -37 -86 -85 -239 -80
-255 2 -7 23 27 46 75 103 214 201 333 457 548 247 208 368 384 395 576 39
287 -205 488 -504 416z m267 -54 c70 -26 126 -75 162 -141 24 -45 30 -69 33
-142 5 -97 -6 -150 -48 -239 -34 -69 -78 -136 -139 -207 -51 -61 -390 -355
-398 -347 -3 3 66 79 154 168 182 187 224 236 281 332 70 117 86 168 87 276 0
85 -3 100 -27 140 -35 60 -72 94 -133 122 -41 19 -67 23 -145 23 -86 0 -101
-3 -163 -32 -115 -55 -221 -184 -251 -305 -7 -32 -24 -37 -33 -10 -3 9 -16 41
-29 71 l-24 53 25 -16 c38 -25 61 -12 111 65 51 77 99 122 174 163 105 57 251
68 363 26z"/>
</g>
</svg>
